<svg width="1024" xmlns="http://www.w3.org/2000/svg" height="1024" xmlns:xlink="http://www.w3.org/1999/xlink" fill="none"><g mask="url(#b)" clip-path="url(#a)"><defs><clipPath id="a" class="mask-clip-path"><polyline points="-2.842170943040401e-14,8.526512829121202e-14 1024,8.526512829121202e-14 1024,1024.0000000000005 -2.842170943040401e-14,1024.0000000000005"/></clipPath><filter id="c"><feFlood flood-color="#fff" result="FloodResult"/><feComposite in="FloodResult" in2="SourceGraphic" operator="in" result="comp"/></filter><mask width="1024" maskUnits="userSpaceOnUse" height="1024" class="mask-shape" x="0" id="b" data-old-y="0" data-old-width="1024" data-old-x="0" y="0" data-old-height="1024"><g filter="url(#c)"><rect rx="100" ry="100" width="1024" height="1024" style="fill: rgb(177, 178, 181); fill-opacity: 1;" class="fills"/></g></mask></defs><g xmlns:xlink="http://www.w3.org/1999/xlink" style="fill: rgb(0, 0, 0);"><path d="M1024 0Zv1024H0V0h1024Z" style="fill: rgb(37, 37, 34);" class="fills"/><defs><clipPath id="e"><use xlink:href="#d" clip-rule="evenodd" fill-rule="evenodd"/></clipPath><path d="M1024 0v1024H0V0h1024Z" id="d"/></defs><path d="M0 0h1024v1024H0V0Z" fill-rule="evenodd" clip-path="url(#e)" style="fill: rgb(74, 10, 10);" class="fills"/><defs><clipPath id="g"><use xlink:href="#f" clip-rule="evenodd" fill-rule="evenodd"/></clipPath><path d="M1024 0v1024H0V0h1024Z" id="f"/></defs><path d="M109.5 914.5 512 804 220 512 109.5 914.5Z" fill-rule="evenodd" clip-path="url(#g)" style="fill: rgb(184, 1, 31);" class="fills"/><defs><clipPath id="i"><use xlink:href="#h" clip-rule="evenodd" fill-rule="evenodd"/></clipPath><path d="M1024 0v1024H0V0h1024Z" id="h"/></defs><path d="M512 512 0 1024" fill="none" clip-path="url(#i)" style="fill: none;" class="fills"/><g fill="none" clip-path="url(#i)" class="strokes"><path d="M512 512 0 1024" style="fill: none; stroke-width: 178; stroke: rgb(184, 1, 31); stroke-opacity: 1;" class="stroke-shape"/></g><defs><clipPath id="l"><use xlink:href="#j" clip-rule="evenodd" fill-rule="evenodd"/></clipPath><filter filterUnits="userSpaceOnUse" width="1228.8" height="1228.8" color-interpolation-filters="sRGB" x="-102.4" id="k" data-old-y="-102.4" data-old-width="1228.8" data-old-x="-102.4" y="-102.4" data-old-height="1228.8"><feFlood flood-opacity="0" result="BackgroundImageFix"/><feColorMatrix in="SourceAlpha" values="0 0 0 0 0 0 0 0 0 0 0 0 0 0 0 0 0 0 128 0"/><feOffset/><feGaussianBlur stdDeviation="25"/><feColorMatrix values="0 0 0 0 0.14509805 0 0 0 0 0.14509805 0 0 0 0 0.13333334 0 0 0 0.52156866 0"/><feBlend in2="BackgroundImageFix" result="effect0_dropShadow"/><feBlend in="SourceGraphic" in2="effect0_dropShadow" result="shape"/></filter><path d="M1024 0v1024H0V0h1024Z" id="j"/></defs><path d="M794.05 436.425c41.739 155.772-50.703 315.886-206.475 357.625-155.772 41.739-315.886-50.703-357.625-206.475-41.739-155.772 50.703-315.886 206.475-357.625 155.772-41.739 315.886 50.703 357.625 206.475Z" fill-rule="evenodd" filter="url(#k)" clip-path="url(#l)" style="fill: rgb(208, 157, 110);" class="fills"/><defs><linearGradient gradientUnits="objectBoundingBox" x1=".629" y1=".983" x2=".371" y2=".017" id="n"><stop offset="0" stop-color="#FEE498"/><stop offset="1" stop-color="#F1BE62"/></linearGradient><clipPath id="o"><use xlink:href="#m" clip-rule="evenodd" fill-rule="evenodd"/></clipPath><path d="M1024 0v1024H0V0h1024Z" id="m"/></defs><path d="M729.674 453.032c32.305 120.563-39.243 244.487-159.807 276.792-120.563 32.305-244.487-39.243-276.792-159.806-32.305-120.563 39.243-244.488 159.806-276.792 120.564-32.305 244.488 39.242 276.793 159.806Z" fill="url(#n)" fill-rule="evenodd" clip-path="url(#o)" style="fill: url(&quot;#n&quot;);" class="fills"/><defs><clipPath id="q"><use xlink:href="#p" clip-rule="evenodd" fill-rule="evenodd"/></clipPath><path d="M1024 0v1024H0V0h1024Z" id="p"/></defs><path d="M400 512.204C400 450.235 450.235 400 512.204 400c61.968 0 112.203 50.235 112.203 112.204 0 61.968-50.235 112.203-112.203 112.203-61.969 0-112.204-50.235-112.204-112.203Z" fill-rule="evenodd" clip-path="url(#q)" style="fill: rgb(25, 24, 21);" class="fills"/></g></g></svg>